<svg width="313" height="287" viewBox="0 0 313 287" fill="none" xmlns="http://www.w3.org/2000/svg">
<rect width="313" height="287" fill="white"/>
<path d="M176 119C186.918 119 196.199 125.999 199.606 135.754L231.901 191.69C231.934 191.627 231.968 191.564 232 191.5C234 195 244.5 213.5 247.5 219C239 219 201 219.5 196 219C205 215 212.5 211 219 206C221.364 204.48 224.003 202.209 226.411 199.527C213.094 211.625 195.409 219 176 219C154.98 219 135.981 210.352 122.363 196.421C127.76 188.772 131.907 179.978 133.538 170.406C142.366 184.571 158.08 194 176 194C192.134 194 206.48 186.356 215.622 174.495L200.6 148.475C198.49 160.146 188.28 169 176 169C162.193 169 151 157.807 151 144C151 130.193 162.193 119 176 119ZM176 69C200.903 69 222.972 81.1374 236.612 99.8193L214.771 112.43C205.602 101.184 191.641 94 176 94C148.386 94 126 116.386 126 144C126 146.031 126.122 148.033 126.357 150H126.5C133.192 179.718 111.689 205.677 92.8926 218.404L92 219H67V111H92V182C99.8043 175.323 102.553 167.389 102.428 158.632C101.492 153.899 101 149.007 101 144C101 102.579 134.579 69 176 69ZM176 126C166.059 126 158 134.059 158 144C158 153.941 166.059 162 176 162C185.941 162 194 153.941 194 144C194 134.059 185.941 126 176 126ZM187.047 114H187V113.918L187.047 114ZM79.5 73C86.4036 73 92 78.5964 92 85.5C92 92.4036 86.4036 98 79.5 98C72.5964 98 67 92.4036 67 85.5C67 78.5964 72.5964 73 79.5 73Z" fill="#1A237E"/>
<circle cx="176.5" cy="144.5" r="12.5" fill="#00BCD4"/>
</svg>
